<svg xmlns="http://www.w3.org/2000/svg" viewBox="0 0 154.624 154.599" enable-background="new 0 0 154.624 154.599"><rect fill="#AC2EFF" width="154.624" height="154.599"/><path fill="#fff" d="M112.47 92.96l-1.926-3.35-33.088-57.585-13.07 22.744-1.914 3.332-32.993 57.42h95.953L112.47 92.96zm-6.028-1.62l-.024.01-25.433 10.833L96.81 84.07l9.578 7.23.054.04zM77.456 40.947l22.152 38.55.475.828 1.41 2.452-2.14-1.615-2.343-1.768-29.048-21.926 9.494-16.52zM66.024 60.84v-.008l.004.002 22.296 16.83-23.744-4.728 1.444-12.095zM94.16 82.15l-19.976 22.864-9.91-28.816 29.886 5.95zm-38.015 28.926H37.16l21.686-37.742.794-1.382 1.487-2.588-.336 2.817-.345 2.902-4.3 35.994zm3.875.037l.004-.038 3.298-27.62 7.873 22.897-11.088 4.723-.087.038zm11.553-.037H69.94l2.513-1.07 2.706-1.154 33.19-14.138 9.403 16.362H71.574z"/></svg>